<?xml version="1.0" encoding="UTF-8"?>
<svg width="24" height="24" version="1.1" viewBox="0 0 24 24" xmlns="http://www.w3.org/2000/svg">
 <circle cx="12" cy="12" r="12" fill="#fff" style="paint-order:stroke fill markers"/>
 <path d="m17.39 10.511c0.23889-1.5967-0.97694-2.455-2.6394-3.0276l0.53928-2.1629-1.3167-0.32811-0.52503 2.1059c-0.34615-0.086245-0.70167-0.16762-1.0549-0.24824l0.52879-2.1198-1.316-0.32811-0.53966 2.1621c-0.28652-0.065246-0.56779-0.12974-0.8408-0.19762l0.0015-0.00675-1.8159-0.45335-0.35027 1.4062s0.97694 0.22386 0.95631 0.23774c0.53328 0.13312 0.62967 0.48597 0.61354 0.76571l-0.61429 2.464c0.036739 0.0094 0.084376 0.02288 0.13688 0.04387-0.043868-0.01088-0.090756-0.02287-0.13913-0.0345l-0.86106 3.4517c-0.065257 0.16199-0.23064 0.40498-0.60341 0.31273 0.013129 0.01913-0.95706-0.23886-0.95706-0.23886l-0.65367 1.507 1.7135 0.4271c0.31877 0.07987 0.63117 0.16349 0.93868 0.24224l-0.54491 2.1876 1.3152 0.32811 0.53966-2.1644c0.35927 0.0975 0.70805 0.18749 1.0493 0.27224l-0.53778 2.1543 1.3167 0.32811 0.54491-2.1835c2.2453 0.42485 3.9336 0.25349 4.6443-1.777 0.57266-1.6349-0.0285-2.578-1.2098-3.193 0.86031-0.19836 1.5083-0.76421 1.6812-1.933zm-3.0084 4.2182c-0.4069 1.6349-3.16 0.75109-4.0525 0.52947l0.72305-2.8982c0.89256 0.22274 3.7547 0.66372 3.3295 2.3688zm0.40728-4.2418c-0.37127 1.4872-2.6627 0.73159-3.406 0.54635l0.65554-2.6286c0.7433 0.18524 3.1371 0.53097 2.7504 2.0823z" fill="#ef9929" stroke-width=".375"/>
</svg>
