<?xml version="1.0" encoding="UTF-8"?>
<svg width="24" height="24" version="1.1" viewBox="0 0 24 24" xmlns="http://www.w3.org/2000/svg">
 <rect width="24" height="24" fill="#fff"/>
 <path d="m17.589 10.459c0.24721-1.6523-1.011-2.5405-2.7314-3.1331l0.55807-2.2382-1.3626-0.33954-0.54332 2.1793c-0.35821-0.08925-0.72612-0.17346-1.0917-0.25689l0.54721-2.1936-1.3618-0.33954-0.55846 2.2375c-0.2965-0.06752-0.58757-0.13426-0.8701-0.2045l0.0015-0.00699-1.8791-0.46914-0.36248 1.4552s1.011 0.23166 0.98963 0.24602c0.55186 0.13776 0.6516 0.50291 0.63492 0.79239l-0.6357 2.5498c0.03802 0.0098 0.08732 0.02368 0.14165 0.04539-0.045398-0.01126-0.093924-0.02367-0.14398-0.0357l-0.89106 3.572c-0.067532 0.16763-0.23867 0.41909-0.62444 0.32363 0.013587 0.0198-0.99041-0.24718-0.99041-0.24718l-0.67644 1.5596 1.7732 0.44198c0.32988 0.08267 0.65316 0.16919 0.97139 0.25068l-0.56389 2.2639 1.361 0.33954 0.55846-2.2398c0.37179 0.1009 0.73272 0.19402 1.0859 0.28172l-0.55652 2.2293 1.3626 0.33954 0.5639-2.2596c2.3235 0.43965 4.0707 0.26231 4.8061-1.839 0.59261-1.6919-0.0295-2.6678-1.252-3.3042 0.89028-0.20528 1.5609-0.79084 1.7398-2.0004zm-3.1133 4.3651c-0.42108 1.6919-3.27 0.77725-4.1937 0.54792l0.74824-2.9992c0.92366 0.2305 3.8856 0.68684 3.4455 2.4513zm0.42146-4.3896c-0.38421 1.539-2.7554 0.75708-3.5246 0.56538l0.67838-2.7202c0.76919 0.19169 3.2464 0.54947 2.8463 2.1548z" fill="#ea8408" stroke-width=".38806"/>
</svg>
