<?xml version="1.0" encoding="UTF-8"?>
<svg width="24" height="24" version="1.1" viewBox="0 0 24 24" xmlns="http://www.w3.org/2000/svg">
 <circle cx="12" cy="12" r="12" fill="#fff" style="paint-order:stroke fill markers"/>
 <g font-size="40px" letter-spacing="0px" word-spacing="0px">
  <text x="4.1112347" y="3.5773082" fill="#000000" font-family="sans-serif" style="line-height:1.25" xml:space="preserve"><tspan x="4.1112347" y="3.5773082"/></text>
  <text x="10.571746" y="-9.2903223" fill="#000000" font-family="sans-serif" style="line-height:1.25" xml:space="preserve"><tspan x="10.571746" y="-9.2903223"/></text>
  <text x="15.163515" y="-5.766407" font-family="Arial" style="line-height:1.25" xml:space="preserve"><tspan x="15.163515" y="-5.766407"/></text>
  <text x="-1.3882091" y="-20.289209" font-family="Bahnschrift" style="line-height:1.25" xml:space="preserve"><tspan x="-1.3882091" y="-20.289209"/></text>
 </g>
 <g aria-label="$">
  <path d="m11.97 18.28q-0.82095 0-1.5573-0.19466-0.72785-0.20312-1.3711-0.59244-0.63475-0.39778-1.1933-0.99022l1.1595-1.4049q0.60936 0.73631 1.3457 1.1087 0.74478 0.36392 1.6165 0.36392 1.2018 0 1.7942-0.46549 0.59244-0.47395 0.59244-1.4303v-0.0085q0-0.60936-0.28776-0.96483t-0.74478-0.53319q-0.45702-0.17773-1.1679-0.31314-0.02539-0.0085-0.05078-0.0085-0.01693 0-0.04232-0.0085-0.04232-0.0085-0.0931-0.01693-0.04232-0.0085-0.08463-0.01693-1.1341-0.21147-1.8366-0.47383-0.70246-0.26236-1.2018-0.9479-0.49934-0.694-0.49934-1.9635v-0.00846q0-1.2357 0.44856-2.0481 0.44856-0.82095 1.3372-1.2272 0.89712-0.41471 2.2428-0.41471 0.59244 0 1.1679 0.12695 0.58397 0.11849 1.151 0.37239 0.56705 0.24544 1.1256 0.61783l-1.041 1.4303q-0.62629-0.42317-1.2272-0.62629-0.59244-0.21158-1.1764-0.21158-1.1172 0-1.6757 0.46549-0.55858 0.45702-0.55858 1.3795v0.00846q0 0.63475 0.32161 0.99868 0.32161 0.35546 0.80402 0.52473 0.49088 0.16927 1.3372 0.35546 0.03385 0.0085 0.06771 0.01693 0.03385 0.0085 0.07617 0.01693 0.04232 0.0085 0.07617 0.01693 0.04232 0.0085 0.08463 0.01693 0.99868 0.22005 1.6673 0.54166 0.67707 0.31314 1.1256 1.0156 0.44856 0.70246 0.44856 1.9127v0.01693q0 1.1933-0.46549 1.9889-0.46549 0.78709-1.3965 1.1849-0.92251 0.38932-2.319 0.38932zm-0.70246-0.66861h1.7265v2.0397h-1.7265zm0-13.262h1.7265v1.9297h-1.7265z"/>
 </g>
</svg>
