<?xml version="1.0" encoding="UTF-8"?>
<svg width="24" height="24" version="1.1" viewBox="0 0 24 24" xmlns="http://www.w3.org/2000/svg">
 <circle cx="12" cy="12" r="12" fill="#fff" style="paint-order:stroke fill markers"/>
 <g font-size="40px" letter-spacing="0px" word-spacing="0px">
  <text x="4.1112347" y="3.5773082" fill="#000000" font-family="sans-serif" style="line-height:1.25" xml:space="preserve"><tspan x="4.1112347" y="3.5773082"/></text>
  <text x="10.571746" y="-9.2903223" fill="#000000" font-family="sans-serif" style="line-height:1.25" xml:space="preserve"><tspan x="10.571746" y="-9.2903223"/></text>
  <text x="15.163515" y="-5.766407" font-family="Arial" style="line-height:1.25" xml:space="preserve"><tspan x="15.163515" y="-5.766407"/></text>
  <text x="-1.3882091" y="-20.289209" font-family="Bahnschrift" style="line-height:1.25" xml:space="preserve"><tspan x="-1.3882091" y="-20.289209"/></text>
 </g>
 <g aria-label="€">
  <path d="m7.472 12.508h5.8397v1.1849h-5.8397zm0-2.1836h5.8397v1.1849h-5.8397zm5.0526 7.9556q-1.1764 0-2.0735-0.56705-0.88865-0.56705-1.3795-1.608-0.49088-1.041-0.49088-2.4121v-3.3769q0-1.3711 0.49088-2.4121 0.49088-1.041 1.3795-1.608 0.89712-0.57551 2.0735-0.57551 0.99868 0 1.8366 0.41471 0.83788 0.40624 1.4049 1.1595 0.56705 0.75324 0.7617 1.7435h-1.8281q-0.17773-0.49934-0.5078-0.88019-0.33007-0.38085-0.77017-0.58397-0.43163-0.21158-0.89712-0.21158-0.66014 0-1.1679 0.37239-0.49934 0.36393-0.77863 1.0325-0.27083 0.66861-0.27083 1.5488v3.3769q0 0.88019 0.27083 1.5488 0.27929 0.66861 0.77863 1.0325 0.5078 0.36392 1.1679 0.36392 0.46549 0 0.89712-0.18619 0.43163-0.1862 0.7617-0.52473 0.33854-0.347 0.51627-0.79556h1.8281q-0.20312 0.93944-0.77017 1.6588-0.56705 0.71092-1.4049 1.1002-0.83788 0.38932-1.8281 0.38932z"/>
 </g>
</svg>
